<svg width="32" height="32" viewBox="0 0 32 32" fill="none" xmlns="http://www.w3.org/2000/svg">
<mask id="mask0_90_132" style="mask-type:alpha" maskUnits="userSpaceOnUse" x="0" y="0" width="32" height="32">
<rect width="32" height="32" fill="#D9D9D9"/>
</mask>
<g mask="url(#mask0_90_132)">
<path d="M9.36636 30.3999C7.96636 30.3999 6.76636 29.8999 5.76636 28.8999C4.76636 27.8999 4.26636 26.6999 4.26636 25.2999V6.69991C4.26636 5.29991 4.76636 4.09991 5.76636 3.09991C6.76636 2.09991 7.96636 1.59991 9.36636 1.59991H24.1997C25.1997 1.59991 26.0386 1.9388 26.7164 2.61658C27.3941 3.29436 27.733 4.13325 27.733 5.13325V22.7999C27.733 23.0221 27.6608 23.2277 27.5164 23.4166C27.3719 23.6055 27.133 23.8221 26.7997 24.0666C26.6219 24.1999 26.4775 24.3777 26.3664 24.5999C26.2552 24.8221 26.1997 25.0555 26.1997 25.2999C26.1997 25.5666 26.2497 25.8055 26.3497 26.0166C26.4497 26.2277 26.5997 26.411 26.7997 26.5666C27.133 26.811 27.3719 27.061 27.5164 27.3166C27.6608 27.5721 27.733 27.8777 27.733 28.2332V28.6332C27.733 29.1221 27.5608 29.5388 27.2164 29.8832C26.8719 30.2277 26.4552 30.3999 25.9664 30.3999H9.36636ZM12.233 20.1999C12.7219 20.1999 13.1386 20.0277 13.483 19.6832C13.8275 19.3388 13.9997 18.9221 13.9997 18.4332V6.89991C13.9997 6.41103 13.8275 5.99436 13.483 5.64991C13.1386 5.30547 12.7219 5.13325 12.233 5.13325C11.7441 5.13325 11.3275 5.30547 10.983 5.64991C10.6386 5.99436 10.4664 6.41103 10.4664 6.89991V18.4332C10.4664 18.9221 10.6386 19.3388 10.983 19.6832C11.3275 20.0277 11.7441 20.1999 12.233 20.1999ZM9.36636 26.8666H22.8997C22.8108 26.6221 22.7497 26.3666 22.7164 26.0999C22.683 25.8332 22.6664 25.5666 22.6664 25.2999C22.6664 25.0332 22.683 24.7666 22.7164 24.4999C22.7497 24.2332 22.8108 23.9777 22.8997 23.7332H9.36636C8.92191 23.7332 8.54969 23.8888 8.24969 24.1999C7.94969 24.511 7.79969 24.8777 7.79969 25.2999C7.79969 25.7444 7.94969 26.1166 8.24969 26.4166C8.54969 26.7166 8.92191 26.8666 9.36636 26.8666Z" fill="#1C1B1F"/>
</g>
</svg>
