<svg width="32" height="32" viewBox="0 0 32 32" fill="none" xmlns="http://www.w3.org/2000/svg">
<mask id="mask0_90_135" style="mask-type:alpha" maskUnits="userSpaceOnUse" x="0" y="0" width="32" height="32">
<rect width="32" height="32" fill="#D9D9D9"/>
</mask>
<g mask="url(#mask0_90_135)">
<path d="M7.80002 30.4C6.44817 30.4 5.29909 29.9269 4.35278 28.9806C3.40649 28.0343 2.93335 26.8852 2.93335 25.5333V24.2C2.93335 23.2 3.27224 22.3611 3.95002 21.6833C4.62779 21.0056 5.46668 20.6667 6.46668 20.6667H7.06668V5.13334C7.06668 4.13334 7.40557 3.29445 8.08335 2.61667C8.76113 1.93889 9.60002 1.60001 10.6 1.60001H25.5334C26.5334 1.60001 27.3722 1.93889 28.05 2.61667C28.7278 3.29445 29.0667 4.13334 29.0667 5.13334V25.5333C29.0667 26.8852 28.5935 28.0343 27.6473 28.9806C26.7009 29.9269 25.5519 30.4 24.2 30.4H7.80002ZM24.2 26.8667C24.5778 26.8667 24.8945 26.7389 25.15 26.4833C25.4056 26.2278 25.5334 25.9111 25.5334 25.5333V5.13334H10.6V20.6667H19.3334C20.3334 20.6667 21.1722 21.0056 21.85 21.6833C22.5278 22.3611 22.8667 23.2 22.8667 24.2V25.5333C22.8667 25.9111 22.9945 26.2278 23.25 26.4833C23.5056 26.7389 23.8222 26.8667 24.2 26.8667ZM13.7 11.3333C13.2111 11.3333 12.7945 11.1611 12.45 10.8167C12.1056 10.4722 11.9333 10.0556 11.9333 9.56667C11.9333 9.07778 12.1056 8.66112 12.45 8.31667C12.7945 7.97223 13.2111 7.80001 13.7 7.80001H22.4333C22.9222 7.80001 23.3389 7.97223 23.6833 8.31667C24.0278 8.66112 24.2 9.07778 24.2 9.56667C24.2 10.0556 24.0278 10.4722 23.6833 10.8167C23.3389 11.1611 22.9222 11.3333 22.4333 11.3333H13.7ZM13.7 16.2C13.2111 16.2 12.7945 16.0278 12.45 15.6833C12.1056 15.3389 11.9333 14.9222 11.9333 14.4333C11.9333 13.9445 12.1056 13.5278 12.45 13.1833C12.7945 12.8389 13.2111 12.6667 13.7 12.6667H22.4333C22.9222 12.6667 23.3389 12.8389 23.6833 13.1833C24.0278 13.5278 24.2 13.9445 24.2 14.4333C24.2 14.9222 24.0278 15.3389 23.6833 15.6833C23.3389 16.0278 22.9222 16.2 22.4333 16.2H13.7Z" fill="#1C1B1F"/>
</g>
</svg>
