<svg width="33" height="36" viewBox="0 0 33 36" fill="none" xmlns="http://www.w3.org/2000/svg">
<path opacity="0.977" fill-rule="evenodd" clip-rule="evenodd" d="M16.04 0C16.0869 0 16.1338 0 16.1807 0C19.0619 3.56116 21.9447 7.12364 24.8291 10.6875C19.0166 10.7812 13.2041 10.7812 7.3916 10.6875C10.276 7.12364 13.1588 3.56116 16.04 0Z" fill="black"/>
<path opacity="0.949" fill-rule="evenodd" clip-rule="evenodd" d="M11.54 2.10938C11.6909 2.12318 11.7026 2.1935 11.5752 2.32031C9.35852 4.98454 7.16716 7.66814 5.00098 10.3711C4.87519 10.4077 4.758 10.3842 4.64941 10.3008C3.44254 9.61537 2.24722 8.91225 1.06348 8.19141C4.56009 6.16218 8.05226 4.13484 11.54 2.10938Z" fill="black"/>
<path opacity="0.949" fill-rule="evenodd" clip-rule="evenodd" d="M20.54 2.17969C20.5443 2.1415 20.5677 2.11807 20.6104 2.10938C24.1374 4.11896 27.6531 6.1463 31.1572 8.19141C29.9735 8.91225 28.7782 9.61537 27.5713 10.3008C27.4627 10.3842 27.3455 10.4077 27.2197 10.3711C25.0027 7.62736 22.7762 4.89688 20.54 2.17969Z" fill="black"/>
<path opacity="0.948" fill-rule="evenodd" clip-rule="evenodd" d="M0.00878807 9.98438C1.28197 10.6798 2.5476 11.3946 3.80566 12.1289C3.84493 12.1799 3.86837 12.2385 3.87598 12.3047C2.62971 15.6174 1.36408 18.9221 0.0791006 22.2188C0.00878807 18.1409 -0.0146471 14.0628 0.00878807 9.98438Z" fill="black"/>
<path opacity="0.948" fill-rule="evenodd" clip-rule="evenodd" d="M32.0713 9.98438C32.165 11.9995 32.2119 14.0385 32.2119 16.1016C32.1885 18.1406 32.165 20.1797 32.1416 22.2188C30.8566 18.9221 29.591 15.6174 28.3447 12.3047C28.3523 12.2385 28.3757 12.1799 28.415 12.1289C29.6498 11.4299 30.8685 10.7151 32.0713 9.98438Z" fill="black"/>
<path opacity="0.985" fill-rule="evenodd" clip-rule="evenodd" d="M6.96973 12.8672C13.0518 12.7735 19.1456 12.7735 25.251 12.8672C22.2041 18.1172 19.1572 23.3672 16.1104 28.6172C13.0616 23.3627 10.0147 18.1128 6.96973 12.8672Z" fill="black"/>
<path opacity="0.98" fill-rule="evenodd" clip-rule="evenodd" d="M5.35254 14.2031C8.29181 19.2186 11.2215 24.2459 14.1416 29.2852C9.6158 28.6207 5.09235 27.9176 0.571289 27.1758C0.51447 27.1541 0.467599 27.119 0.430664 27.0703C2.05289 22.7717 3.69352 18.4826 5.35254 14.2031Z" fill="black"/>
<path opacity="0.98" fill-rule="evenodd" clip-rule="evenodd" d="M26.7979 14.2031C28.5152 18.4604 30.1793 22.7495 31.79 27.0703C31.4802 27.2044 31.1522 27.2865 30.8057 27.3164C26.5658 28.0114 22.3237 28.6676 18.0791 29.2852C21.0014 24.2657 23.9076 19.2383 26.7979 14.2031Z" fill="black"/>
<path opacity="0.96" fill-rule="evenodd" clip-rule="evenodd" d="M15.0557 36C15.0088 36 14.9619 36 14.915 36C11.4392 33.9923 7.97041 31.9649 4.50879 29.918C8.02737 30.4301 11.543 30.981 15.0557 31.5703C15.0557 33.0469 15.0557 34.5234 15.0557 36Z" fill="black"/>
<path opacity="0.96" fill-rule="evenodd" clip-rule="evenodd" d="M17.3057 36C17.2588 36 17.2119 36 17.165 36C17.165 34.5234 17.165 33.0469 17.165 31.5703C20.6801 30.9961 24.1957 30.4454 27.7119 29.918C24.2503 31.9649 20.7815 33.9923 17.3057 36Z" fill="black"/>
</svg>
