<svg width="64" height="64" viewBox="0 0 64 64" fill="none" xmlns="http://www.w3.org/2000/svg">
<path fill-rule="evenodd" clip-rule="evenodd" d="M49.4553 17.1258C47.9948 15.9833 46.5264 14.8345 45.0311 13.6975C40.9805 10.6404 37.0391 7.65952 33.1665 4.59186C32.2855 3.89398 31.6485 3.91902 30.8216 4.55107C22.563 10.8635 14.2984 17.1681 6.0224 23.4578C4.49047 24.622 3.37529 25.9305 3.34598 28.018C3.30291 31.0853 3.20402 34.1597 2.92521 37.2125C2.78813 38.7135 3.54124 39.4149 4.56683 40.1374C10.085 44.0248 15.596 47.9225 21.1022 51.8269C23.6231 53.6144 26.1382 55.4101 28.6535 57.2059C29.7794 58.0098 30.9054 58.8136 32.0319 59.6168C33.0219 58.9142 33.9989 58.222 34.9665 57.5364C37.0725 56.0443 39.1343 54.5835 41.1902 53.1146C41.9103 52.6001 42.6304 52.0857 43.3506 51.5713C48.9771 47.5526 54.6037 43.5338 60.1934 39.4644C60.6849 39.1067 61.098 38.2697 61.0908 37.6609C61.0538 34.5281 60.8925 31.3956 60.724 28.2658C60.6209 26.3506 59.9584 24.9361 58.1801 23.6969C55.2058 21.6245 52.3462 19.3874 49.4553 17.1258ZM36.0047 42.6515C37.0553 43.0927 38.3265 43.3134 39.8184 43.3134C41.3103 43.3134 42.5816 43.0927 43.6322 42.6515C44.7038 42.2102 45.5758 41.6009 46.2482 40.8234C46.9206 40.0459 47.4249 39.1529 47.7611 38.1443C48.0973 37.1147 48.2864 36.0221 48.3284 34.8664C48.3705 34.2991 48.3915 33.6792 48.3915 33.0068V30.9266C48.3915 30.2332 48.3705 29.5923 48.3284 29.0039C48.2864 27.8483 48.0868 26.7661 47.7296 25.7575C47.3934 24.7279 46.8786 23.8349 46.1852 23.0784C45.5128 22.322 44.6513 21.7231 43.6007 21.2819C42.55 20.8406 41.2893 20.62 39.8184 20.62C38.3686 20.62 37.1183 20.8406 36.0677 21.2819C35.0171 21.7231 34.1451 22.322 33.4517 23.0784C32.7793 23.8349 32.2645 24.7279 31.9073 25.7575C31.55 26.7661 31.3504 27.8483 31.3084 29.0039C31.2874 29.5923 31.2664 30.2332 31.2454 30.9266V33.0068C31.2664 33.6792 31.2874 34.2991 31.3084 34.8664C31.3714 36.0221 31.5711 37.1147 31.9073 38.1443C32.2434 39.1529 32.7477 40.0459 33.4201 40.8234C34.0925 41.6009 34.9541 42.2102 36.0047 42.6515ZM42.8127 38.365C42.1823 39.2475 41.1842 39.6887 39.8184 39.6887C38.4946 39.6887 37.5071 39.2475 36.8557 38.365C36.2043 37.4614 35.8576 36.2427 35.8156 34.7088C35.8156 34.0994 35.8051 33.4901 35.784 32.8807V30.9896C35.8051 30.3592 35.8156 29.7604 35.8156 29.193C35.8576 27.7012 36.1938 26.5035 36.8242 25.5999C37.4755 24.6754 38.4736 24.2131 39.8184 24.2131C41.1842 24.2131 42.1823 24.6754 42.8127 25.5999C43.4641 26.5035 43.8003 27.7012 43.8213 29.193C43.8633 29.7604 43.8843 30.3592 43.8843 30.9896V32.8807C43.8843 33.4901 43.8633 34.0994 43.8213 34.7088C43.8003 36.2427 43.4641 37.4614 42.8127 38.365ZM22.8649 42.2417C22.8649 42.4519 22.9279 42.6305 23.054 42.7776C23.2011 42.9246 23.3902 42.9982 23.6213 42.9982H26.4895C26.6996 42.9982 26.8782 42.9246 27.0253 42.7776C27.1724 42.6305 27.2459 42.4519 27.2459 42.2417V21.6916C27.2459 21.4815 27.1724 21.3029 27.0253 21.1558C26.8782 21.0087 26.6996 20.9352 26.4895 20.9352H23.7159C23.5688 20.9352 23.4322 20.9457 23.3061 20.9667C23.18 20.9877 23.054 21.0507 22.9279 21.1558L15.8677 26.6085C15.6786 26.7346 15.5631 26.9027 15.521 27.1128C15.5 27.3229 15.5525 27.5226 15.6786 27.7117L17.0024 29.4137C17.1495 29.6028 17.3176 29.7184 17.5067 29.7604C17.6958 29.7814 17.8849 29.7289 18.074 29.6028L22.8649 25.9151V42.2417Z" fill="black"/>
</svg>
