<svg width="64" height="64" viewBox="0 0 64 64" fill="none" xmlns="http://www.w3.org/2000/svg">
<path fill-rule="evenodd" clip-rule="evenodd" d="M60.2988 28.1268C60.2944 26.7825 60.2899 25.4282 60.2896 24.0602C60.2525 23.8265 60.2314 23.5976 60.2113 23.3797C60.1636 22.8629 60.1217 22.4088 59.8866 22.1036C56.7511 18.033 53.6005 13.9711 50.3268 10.0121C49.5749 9.1028 48.4214 8.3559 47.302 7.94965C42.4904 6.20351 37.6294 4.59169 32.7657 2.99415C32.2409 2.82176 31.5372 2.93441 30.9915 3.12708C28.8048 3.89909 26.6272 4.69684 24.4496 5.4946C23.0564 6.00497 21.6633 6.51534 20.2677 7.01898C17.2809 8.09691 14.4346 9.17194 12.5839 12.1632C10.5491 15.452 8.15391 18.5431 5.67925 21.524C4.4496 23.0052 3.99153 24.4625 4.08432 26.2971C4.16895 27.9704 4.22252 29.6455 4.27608 31.3205C4.34779 33.5627 4.4195 35.8047 4.56569 38.042C4.56882 38.09 4.57194 38.1381 4.57508 38.1864C4.67765 39.7664 4.79316 41.5458 5.58637 42.7968C6.86187 44.8085 8.27048 46.7352 9.67936 48.6622C10.926 50.3672 12.1728 52.0725 13.3278 53.8373C14.5648 55.7275 16.0574 56.772 18.216 57.2955C19.8579 57.6937 21.4746 58.1942 23.0915 58.6949C24.4773 59.1239 25.8633 59.5531 27.2655 59.9179C27.7186 60.0358 28.183 60.1751 28.652 60.3158C30.3029 60.811 32.011 61.3235 33.4827 60.978C37.7461 59.9774 41.9199 58.5863 46.0893 57.1967C47.0902 56.8631 48.0909 56.5296 49.0925 56.2016C49.8134 55.9655 50.5318 55.3355 50.9736 54.6959C53.8029 50.6001 56.6053 46.4833 59.2922 42.2936C59.8831 41.3721 60.2276 40.1343 60.2498 39.0334C60.3226 35.4243 60.3108 31.8135 60.2988 28.1268ZM31.7874 44.057C31.9451 44.2147 32.1367 44.2936 32.362 44.2936H48.517C48.7648 44.2936 48.9563 44.2147 49.0915 44.057C49.2492 43.8993 49.3281 43.7077 49.3281 43.4824V41.0828C49.3281 40.835 49.2492 40.6435 49.0915 40.5083C48.9563 40.3506 48.7648 40.2717 48.517 40.2717H38.8848L43.684 35.4049C44.7655 34.5487 45.6893 33.7151 46.4553 32.904C47.2214 32.0703 47.8072 31.2141 48.2128 30.3354C48.6184 29.4341 48.8211 28.454 48.8211 27.395C48.8211 26.0432 48.5057 24.8265 47.8748 23.745C47.2665 22.6635 46.3427 21.8073 45.1035 21.1764C43.8868 20.5455 42.3434 20.2301 40.4733 20.2301C39.1439 20.2301 37.9498 20.4441 36.8908 20.8722C35.8318 21.3003 34.9306 21.8749 34.187 22.5959C33.466 23.2943 32.914 24.1055 32.531 25.0292C32.1479 25.9305 31.9451 26.8656 31.9226 27.8344C31.9226 28.0147 31.9902 28.1724 32.1254 28.3076C32.2606 28.4428 32.4296 28.5103 32.6324 28.5103H35.6403C35.8431 28.5103 36.0459 28.454 36.2486 28.3414C36.4514 28.2287 36.5753 28.0259 36.6204 27.733C36.7331 27.0796 36.9358 26.4825 37.2287 25.9418C37.5442 25.401 37.9723 24.9729 38.513 24.6575C39.0538 24.3195 39.7185 24.1505 40.5071 24.1505C41.7012 24.1505 42.5687 24.466 43.1094 25.0968C43.6727 25.7277 43.9544 26.5501 43.9544 27.564C43.9544 28.24 43.7403 28.9272 43.3122 29.6256C42.9067 30.3016 42.242 31.0564 41.3182 31.89C40.4169 32.7012 39.2228 33.6926 37.7357 34.8642L32.3958 40.1703C32.0353 40.4632 31.7987 40.7561 31.686 41.049C31.5959 41.3194 31.5508 41.556 31.5508 41.7588V43.4824C31.5508 43.7077 31.6297 43.8993 31.7874 44.057ZM22.9363 43.4824C22.9363 43.7077 23.0039 43.8993 23.1391 44.057C23.2968 44.2147 23.4996 44.2936 23.7474 44.2936H26.823C27.0483 44.2936 27.2398 44.2147 27.3975 44.057C27.5552 43.8993 27.6341 43.7077 27.6341 43.4824V21.4468C27.6341 21.2214 27.5552 21.0299 27.3975 20.8722C27.2398 20.7145 27.0483 20.6356 26.823 20.6356H23.8488C23.6911 20.6356 23.5446 20.6469 23.4095 20.6694C23.2743 20.692 23.1391 20.7596 23.0039 20.8722L15.4334 26.7191C15.2306 26.8543 15.1067 27.0345 15.0616 27.2599C15.0391 27.4852 15.0954 27.6992 15.2306 27.902L16.6501 29.727C16.8078 29.9298 16.988 30.0537 17.1908 30.0988C17.3936 30.1213 17.5964 30.065 17.7991 29.9298L22.9363 25.9756V43.4824Z" fill="black"/>
</svg>
