<svg width="64" height="64" viewBox="0 0 64 64" fill="none" xmlns="http://www.w3.org/2000/svg">
<path fill-rule="evenodd" clip-rule="evenodd" d="M49.017 13.6363C48.2057 13.0959 47.3871 12.5507 46.5478 12.0183C45.5897 11.4001 44.6369 10.7841 43.6879 10.1706C39.9665 7.76457 36.3041 5.39674 32.6075 3.08353C32.1787 2.81519 31.2686 2.87078 30.8157 3.15217C24.0831 7.33546 17.375 11.5581 10.6845 15.7696C9.25555 16.6691 7.82741 17.5681 6.4 18.4661C6.417 18.6664 6.4368 18.8594 6.4561 19.0476C6.49611 19.4376 6.53398 19.8067 6.54025 20.1763C6.55603 21.1058 6.5719 22.0354 6.58777 22.9649C6.70526 29.8463 6.82275 36.7276 6.902 43.6094C6.91381 44.6349 7.19441 45.2151 8.11596 45.8286C11.7514 48.2491 15.3678 50.6981 18.9841 53.1472C22.7988 55.7305 26.6135 58.3138 30.4505 60.8636C30.9803 61.2157 32.176 61.1386 32.7458 60.771C40.3463 55.866 47.8997 50.8875 55.4284 45.8727C55.9563 45.5212 56.4909 44.7564 56.525 44.1556C56.6795 41.4284 56.7613 38.6972 56.8432 35.9658C56.8771 34.8345 56.911 33.7031 56.95 32.572C56.9811 31.6736 57.0066 30.7748 57.0322 29.876C57.1023 27.4122 57.1724 24.9483 57.3549 22.4929C57.5348 20.0709 57.119 18.3001 54.6566 17.069C52.7089 16.0952 50.8825 14.8788 49.017 13.6363ZM14.1345 42.1836C14.275 42.324 14.4455 42.3943 14.6461 42.3943H29.0317C29.2524 42.3943 29.423 42.324 29.5434 42.1836C29.6838 42.0432 29.754 41.8726 29.754 41.672V39.5352C29.754 39.3145 29.6838 39.144 29.5434 39.0236C29.423 38.8831 29.2524 38.8129 29.0317 38.8129H20.4546L24.7281 34.4792C25.6912 33.7168 26.5138 32.9744 27.1959 32.2521C27.8781 31.5098 28.3997 30.7473 28.7609 29.9649C29.122 29.1623 29.3026 28.2895 29.3026 27.3466C29.3026 26.1427 29.0217 25.0593 28.4599 24.0963C27.9182 23.1332 27.0956 22.3708 25.9921 21.809C24.9087 21.2472 23.5343 20.9663 21.869 20.9663C20.6853 20.9663 19.6219 21.1569 18.6789 21.5381C17.7359 21.9194 16.9334 22.431 16.2713 23.073C15.6293 23.695 15.1377 24.4173 14.7966 25.2399C14.4555 26.0424 14.275 26.8751 14.2549 27.7378C14.2549 27.8983 14.3151 28.0388 14.4355 28.1591C14.5559 28.2795 14.7063 28.3397 14.8869 28.3397H17.5654C17.746 28.3397 17.9265 28.2895 18.1071 28.1892C18.2877 28.0889 18.398 27.9083 18.4382 27.6475C18.5385 27.0657 18.7191 26.534 18.9799 26.0525C19.2608 25.5709 19.642 25.1897 20.1235 24.9088C20.605 24.6079 21.1969 24.4574 21.8991 24.4574C22.9625 24.4574 23.735 24.7383 24.2165 25.3001C24.7181 25.8619 24.9689 26.5942 24.9689 27.497C24.9689 28.0989 24.7783 28.7109 24.3971 29.3329C24.0359 29.9348 23.444 30.6069 22.6214 31.3492C21.8189 32.0715 20.7555 32.9543 19.4313 33.9976L14.6762 38.7226C14.3552 38.9835 14.1446 39.2443 14.0442 39.5051C13.964 39.7459 13.9239 39.9565 13.9239 40.1371V41.672C13.9239 41.8726 13.9941 42.0432 14.1345 42.1836ZM37.4326 42.0632C38.4358 42.4846 39.6496 42.6952 41.0741 42.6952C42.4987 42.6952 43.7125 42.4846 44.7157 42.0632C45.7389 41.6419 46.5716 41.06 47.2136 40.3177C47.8556 39.5753 48.3372 38.7226 48.6582 37.7596C48.9792 36.7765 49.1598 35.7331 49.1999 34.6296C49.24 34.0879 49.2601 33.4961 49.2601 32.854V30.8677C49.2601 30.2056 49.24 29.5937 49.1999 29.0319C49.1598 27.9284 48.9692 26.8951 48.6281 25.9321C48.3071 24.949 47.8155 24.0963 47.1534 23.374C46.5114 22.6517 45.6888 22.0799 44.6856 21.6585C43.6824 21.2372 42.4786 21.0265 41.0741 21.0265C39.6898 21.0265 38.496 21.2372 37.4928 21.6585C36.4896 22.0799 35.657 22.6517 34.9949 23.374C34.3528 24.0963 33.8613 24.949 33.5202 25.9321C33.1791 26.8951 32.9885 27.9284 32.9484 29.0319C32.9283 29.5937 32.9083 30.2056 32.8882 30.8677V32.854C32.9083 33.4961 32.9283 34.0879 32.9484 34.6296C33.0086 35.7331 33.1992 36.7765 33.5202 37.7596C33.8412 38.7226 34.3227 39.5753 34.9648 40.3177C35.6068 41.06 36.4294 41.6419 37.4326 42.0632ZM43.9332 37.9702C43.3313 38.8129 42.3783 39.2342 41.0741 39.2342C39.8101 39.2342 38.8671 38.8129 38.2452 37.9702C37.6232 37.1075 37.2922 35.9438 37.252 34.4792C37.252 33.8973 37.242 33.3155 37.2219 32.7336V30.9279C37.242 30.326 37.252 29.7542 37.252 29.2125C37.2922 27.788 37.6132 26.6443 38.2151 25.7816C38.837 24.8988 39.7901 24.4574 41.0741 24.4574C42.3783 24.4574 43.3313 24.8988 43.9332 25.7816C44.5552 26.6443 44.8762 27.788 44.8963 29.2125C44.9364 29.7542 44.9564 30.326 44.9564 30.9279V32.7336C44.9564 33.3155 44.9364 33.8973 44.8963 34.4792C44.8762 35.9438 44.5552 37.1075 43.9332 37.9702Z" fill="black"/>
</svg>
