<svg width="64" height="64" viewBox="0 0 64 64" fill="none" xmlns="http://www.w3.org/2000/svg">
<path fill-rule="evenodd" clip-rule="evenodd" d="M31.9629 5C26.8004 15.3079 21.8878 25.1168 16.8828 35.0469C12.8863 43.0595 8.98221 50.9508 5.00028 58.9994L5 59H59L31.9629 5ZM33.1698 50.75C33.31 50.9167 33.4801 51 33.6804 51H36.2931C36.4933 51 36.6635 50.9167 36.8037 50.75C36.9438 50.5834 37.0139 50.381 37.0139 50.1429V45.5715H39.7167C39.917 45.5715 40.0871 45.4881 40.2273 45.3215C40.3674 45.1548 40.4375 44.9524 40.4375 44.7143V42.2143C40.4375 41.9524 40.3674 41.75 40.2273 41.6072C40.1072 41.4405 39.927 41.3572 39.6867 41.3572H37.0139V26.8572C37.0139 26.6191 36.9438 26.4167 36.8037 26.25C36.6635 26.0834 36.4933 26 36.2931 26H33.0197C32.5391 26 32.1688 26.2024 31.9085 26.6072L23.0491 41.2143C22.929 41.381 22.8389 41.5715 22.7788 41.7857C22.7388 41.9762 22.7188 42.1429 22.7188 42.2857V44.7143C22.7188 44.9524 22.7788 45.1548 22.8989 45.3215C23.0391 45.4881 23.2193 45.5715 23.4395 45.5715H32.9596V50.1429C32.9596 50.381 33.0297 50.5834 33.1698 50.75ZM33.0497 41.5H26.8932L33.0497 31.1786V41.5Z" fill="black"/>
</svg>
