<svg width="64" height="64" viewBox="0 0 64 64" fill="none" xmlns="http://www.w3.org/2000/svg">
<path fill-rule="evenodd" clip-rule="evenodd" d="M6.00106 10.2123V10.2124C6.00109 14.185 6.00081 18.1399 6.00053 22.0818C5.99976 33 5.99899 43.8185 6.00476 54.637C6.0065 57.9144 6.08476 57.9927 9.36357 57.9943C24.4346 58.002 39.5056 58.0017 54.5766 57.9947C57.9472 57.9932 57.9948 57.9393 57.996 54.4363C58.0012 39.4521 58.0017 24.4678 57.9955 9.48354C57.9941 6.06741 57.931 6.00527 54.4973 6.00389C40.6167 5.99828 26.736 5.99992 12.8553 6.00157L10.0638 6.00189C6.02667 6.00236 6.02665 6.00629 6.00106 10.2123ZM26.087 44.1148C27.6741 44.9339 29.5684 45.3435 31.7699 45.3435C33.9713 45.3435 35.8529 44.9084 37.4144 44.038C39.0015 43.1676 40.2174 42.0157 41.0622 40.5822C41.9069 39.123 42.3293 37.5487 42.3293 35.8592C42.3293 34.5537 42.0733 33.3505 41.5614 32.2498C41.075 31.1491 40.3966 30.1891 39.5263 29.37C38.6559 28.5508 37.6448 27.9108 36.4928 27.4501C35.3409 26.9637 34.1249 26.7077 32.845 26.6821C32.589 26.6821 32.3074 26.6949 32.0003 26.7205C31.6931 26.7461 31.4243 26.7973 31.1939 26.8741L36.5696 19.4249C36.6208 19.3737 36.6592 19.3097 36.6848 19.2329C36.736 19.1305 36.7616 19.0281 36.7616 18.9257C36.7616 18.6953 36.6848 18.5033 36.5312 18.3497C36.3776 18.1705 36.1856 18.0809 35.9552 18.0809H32.3842C32.0259 18.0809 31.7443 18.1833 31.5395 18.3881C31.3347 18.5673 31.1811 18.7209 31.0787 18.8489L24.0519 28.4868C23.7959 28.794 23.5015 29.2164 23.1687 29.7539C22.8615 30.2659 22.5415 30.8547 22.2088 31.5202C21.876 32.1858 21.6072 32.8898 21.4024 33.6321C21.1976 34.3745 21.0952 35.1425 21.0952 35.936C21.0952 37.7023 21.5304 39.3022 22.4007 40.7358C23.2711 42.1437 24.4998 43.27 26.087 44.1148ZM34.2657 40.3518C33.4978 40.7358 32.653 40.9278 31.7315 40.9278C30.8099 40.9278 29.9524 40.7358 29.1588 40.3518C28.3908 39.9678 27.7637 39.4046 27.2773 38.6623C26.7909 37.9199 26.5477 36.9984 26.5477 35.8976C26.5477 34.8225 26.7909 33.9137 27.2773 33.1714C27.7637 32.429 28.3908 31.8658 29.1588 31.4818C29.9524 31.0979 30.8099 30.9059 31.7315 30.9059C32.653 30.9059 33.4978 31.0979 34.2657 31.4818C35.0593 31.8658 35.6993 32.429 36.1856 33.1714C36.672 33.9137 36.9152 34.8225 36.9152 35.8976C36.9152 36.9984 36.672 37.9199 36.1856 38.6623C35.6993 39.4046 35.0593 39.9678 34.2657 40.3518Z" fill="black"/>
</svg>
