<svg width="64" height="64" viewBox="0 0 64 64" fill="none" xmlns="http://www.w3.org/2000/svg">
<path fill-rule="evenodd" clip-rule="evenodd" d="M6.77271 27.3525C6.74278 28.175 6.71249 29.0071 6.67628 29.8518C6.62134 30.9666 6.56752 32.0738 6.514 33.1747C6.29763 37.6255 6.0862 41.9746 5.8258 46.3207C5.75322 47.5321 6.19751 48.1439 7.26087 48.691C14.8717 52.6065 22.4634 56.5601 30.0195 60.5798C31.3713 61.2989 32.4639 61.2341 33.7667 60.5429C34.8126 59.9881 35.8581 59.4324 36.9037 58.8767C43.1874 55.5369 49.4721 52.1965 55.8469 49.039C57.7194 48.1115 58.019 47.0187 57.9153 45.2276C57.7204 41.8611 57.5488 38.4932 57.3772 35.1253C57.136 30.3916 56.8947 25.6579 56.589 20.9284C56.5257 19.949 55.8511 18.6641 55.0525 18.1309C49.0297 14.1096 42.9543 10.1673 36.9178 6.25031C35.1989 5.13494 33.4832 4.02161 31.7727 2.9091C30.1279 3.98761 28.4846 5.06369 26.843 6.13865C20.7261 10.1442 14.633 14.1341 8.57468 18.1762C7.8953 18.6295 7.23304 19.5975 7.15897 20.3827C6.94313 22.6706 6.8594 24.971 6.77271 27.3525ZM28.139 43.7005C29.2896 44.0546 30.5951 44.2316 32.0555 44.2316C34.0027 44.2316 35.6622 43.9329 37.0341 43.3354C38.4281 42.7159 39.4791 41.875 40.1872 40.8129C40.9174 39.7287 41.2825 38.4896 41.2825 37.0956C41.2825 35.8122 40.9727 34.6948 40.3532 33.7433C39.7336 32.7697 38.9038 32.0395 37.8639 31.5527C38.6604 31.0217 39.28 30.3578 39.7225 29.5613C40.1651 28.7647 40.3864 27.8354 40.3864 26.7732C40.3864 25.4899 40.0655 24.3724 39.4238 23.421C38.7821 22.4474 37.8417 21.6951 36.6026 21.164C35.3635 20.6108 33.8478 20.3342 32.0555 20.3342C30.2632 20.3342 28.7364 20.6108 27.4752 21.164C26.236 21.7172 25.2846 22.4806 24.6208 23.4542C23.9791 24.4056 23.6582 25.5231 23.6582 26.8064C23.6582 27.8685 23.8795 28.7979 24.322 29.5945C24.7867 30.391 25.4284 31.0438 26.2471 31.5527C25.2293 32.0616 24.3995 32.7918 23.7578 33.7433C23.1382 34.6726 22.8285 35.779 22.8285 37.0624C22.8285 38.1245 23.0276 39.087 23.4259 39.95C23.8463 40.8129 24.4437 41.5653 25.2182 42.2069C26.0148 42.8486 26.9884 43.3465 28.139 43.7005ZM34.3788 40.3483C33.6929 40.6359 32.9184 40.7797 32.0555 40.7797C31.1925 40.7797 30.407 40.6359 29.6989 40.3483C29.013 40.0385 28.4598 39.607 28.0394 39.0538C27.6411 38.5006 27.442 37.8479 27.442 37.0956C27.442 36.3211 27.6411 35.6684 28.0394 35.1373C28.4598 34.5841 29.013 34.1637 29.6989 33.8761C30.407 33.5663 31.1925 33.4114 32.0555 33.4114C32.9184 33.4114 33.6929 33.5663 34.3788 33.8761C35.0869 34.1637 35.6401 34.5841 36.0384 35.1373C36.4588 35.6684 36.669 36.3211 36.669 37.0956C36.669 37.8479 36.4588 38.5006 36.0384 39.0538C35.6401 39.607 35.0869 40.0385 34.3788 40.3483ZM34.0469 29.694C33.4495 29.9596 32.7857 30.1034 32.0555 30.1255C31.281 30.1255 30.584 29.9927 29.9645 29.7272C29.367 29.4617 28.8913 29.0966 28.5373 28.6319C28.2054 28.1673 28.0394 27.6141 28.0394 26.9724C28.0394 26.3307 28.2054 25.7775 28.5373 25.3129C28.8913 24.8261 29.367 24.4499 29.9645 24.1844C30.584 23.9188 31.281 23.7861 32.0555 23.7861C32.8299 23.7861 33.5159 23.9188 34.1133 24.1844C34.7329 24.4499 35.2086 24.8261 35.5405 25.3129C35.8945 25.7775 36.0716 26.3307 36.0716 26.9724C36.0716 27.6141 35.8835 28.1673 35.5073 28.6319C35.1533 29.0745 34.6665 29.4285 34.0469 29.694Z" fill="black"/>
</svg>
