<svg width="24" height="24" viewBox="0 0 24 24" fill="none" xmlns="http://www.w3.org/2000/svg">
<path d="M13.6219 1.71564C13.3359 1.78829 11.6531 2.22657 9.57656 3.03845C7.31719 3.92157 4.80469 5.23126 3.82547 6.63283C2.57484 8.41408 2.13375 11.2406 3.04359 13.1672C3.43641 13.9969 4.81406 14.9438 6.10313 15.6C7.39688 16.2563 8.56875 16.6594 8.56875 16.6594L8.85938 16.7578L8.85469 17.0672C8.82656 18.8672 8.76563 20.5266 8.72813 22.2844H12.0469C12.0375 21.9235 10.7625 21.4922 9.89063 21.1688L9.95625 20.8547C10.2703 19.3031 10.4203 17.4281 10.5375 15.675C10.2422 15.6469 9.95156 15.5625 9.67969 15.4266C9.08906 15.136 8.57813 14.611 8.24531 13.9266C8.21719 13.8656 8.18906 13.8 8.16094 13.7391C7.6875 13.6031 7.27031 13.4391 6.9 13.2328C5.92031 12.6891 5.2875 11.8547 4.76719 10.6735L4.59422 10.275L4.99688 10.1156C5.73281 9.81564 6.17344 9.58595 6.53438 9.17345C6.89063 8.75626 7.19531 8.1047 7.53281 6.91876L7.58906 6.73595L13.1156 4.0922L17.8969 7.46251C17.7844 7.83283 17.6438 8.19376 17.7281 8.55001C18.2906 8.87345 19.4062 9.1922 20.3578 9.39845C20.775 9.48751 21.1359 9.55314 21.4406 9.6047C21.2344 9.13595 20.9344 8.77033 20.5453 8.41876C19.9969 7.93126 19.2703 7.49064 18.4594 6.95626L18.4172 6.92814L18.3797 6.88595C16.725 5.03439 15.2906 3.10454 13.6219 1.71564ZM13.3734 5.31095C14.1656 6.33283 15.0234 7.3922 15.5203 8.62032L15.6047 8.82658C15.4219 9.13595 15.2063 9.38908 15.15 9.73126C15.8297 10.1531 16.8938 10.486 17.7938 10.6922C18.1453 10.7719 18.4594 10.8328 18.7266 10.8797C18.5813 10.6641 18.3938 10.425 18.1594 10.1906C17.6766 9.69845 17.0484 9.20626 16.4672 8.82189L16.2891 8.70939L16.275 8.49845C16.2375 7.97345 16.0688 7.50001 15.8344 7.04533L13.3734 5.31095ZM9.88594 11.0063C9.72188 11.0063 9.5625 11.0438 9.41719 11.1141C9.08906 11.2735 8.86406 11.5969 8.775 12.0375C8.68594 12.4828 8.74688 13.0313 9 13.5563C9.25781 14.086 9.65156 14.4703 10.0594 14.6766C10.4625 14.8735 10.8516 14.8969 11.1844 14.7375C11.5125 14.5781 11.7375 14.2547 11.8313 13.8141C11.9203 13.3688 11.8547 12.8203 11.6016 12.2906C11.3438 11.7656 10.95 11.3766 10.5469 11.175C10.3219 11.0625 10.0969 11.0063 9.88594 11.0063Z" fill="black"/>
</svg>
