<svg width="24" height="24" viewBox="0 0 24 24" fill="none" xmlns="http://www.w3.org/2000/svg">
<path d="M3.06751 0.862046L2.95844 1.31753C2.52892 3.11176 2.30017 5.05708 2.30017 7.09187C2.30017 11.4707 3.38284 15.4396 5.16175 18.3425C5.96884 19.6595 6.92669 20.7613 7.9952 21.5732C9.2463 22.5696 10.6367 23.1182 12.091 23.1182C12.1081 23.1182 12.1448 23.1126 12.1813 23.1065C12.2105 23.1069 12.2398 23.1075 12.269 23.1075C15.0876 23.1075 17.5973 21.2454 19.3762 18.3425C21.1551 15.4395 22.2377 11.4707 22.2377 7.09183C22.2377 5.14384 22.01 3.28544 21.6164 1.56002L21.5074 1.08236L21.0583 1.27811C18.6714 2.31855 15.7155 2.95178 12.523 2.95216C12.4286 2.95112 12.335 2.94934 12.2417 2.94733V2.94376C12.1809 2.94376 12.1204 2.94297 12.0598 2.94236C8.7887 2.84612 6.1773 2.09495 3.50298 1.03464L3.06751 0.862046ZM20.9183 2.20956C21.2366 3.74584 21.4256 5.38051 21.4256 7.09187C21.4256 11.3363 20.3665 15.1722 18.6837 17.9183C17.0009 20.6643 14.7294 22.2955 12.269 22.2955C12.2598 22.2955 12.2507 22.2952 12.2416 22.2951V19.2957C12.1179 19.2968 11.9941 19.2943 11.8706 19.2881C9.27573 19.1582 6.74645 17.4642 6.15048 14.6127L6.04009 14.0851H10.4883L12.2416 14.751V3.75967C12.3328 3.76164 12.4242 3.76333 12.5164 3.76427H12.5205C15.6221 3.76427 18.5051 3.18381 20.9182 2.20952L20.9183 2.20956ZM7.8153 6.80894C9.47303 6.80894 10.817 7.42994 10.817 8.19597C10.817 8.96191 9.47317 9.58276 7.81534 9.58276C6.15761 9.58276 4.81366 8.96186 4.81366 8.19592C4.81366 7.42998 6.15756 6.80898 7.81539 6.80898L7.8153 6.80894ZM16.5473 6.80894C14.8894 6.80894 13.5456 7.42994 13.5456 8.19597C13.5456 8.96191 14.8895 9.58276 16.5473 9.58276C18.2051 9.58276 19.5489 8.96186 19.5489 8.19592C19.5489 7.42998 18.205 6.80894 16.5473 6.80894ZM7.15183 14.9611C7.84183 17.073 9.83528 18.3093 11.9144 18.4133C14.0144 18.5183 16.1443 17.5015 17.0902 14.9611H14.3973L12.3253 15.7199L10.3275 14.9611H7.15178H7.15183Z" fill="black"/>
</svg>
