<svg width="24" height="24" viewBox="0 0 24 24" fill="none" xmlns="http://www.w3.org/2000/svg">
<path d="M8.67189 1.09782C11.1891 3.22782 8.9297 4.3936 8.30626 4.67532C6.40782 5.53595 4.19767 3.52173 3.6422 1.51829C2.97329 3.54423 1.43251 7.71095 4.16579 9.39845C2.48907 11.2688 2.49095 11.1328 1.1086 9.02813C0.71251 10.9641 0.975479 14.3063 1.84407 16.7203C1.9397 15.6844 2.08032 14.6813 2.37048 13.875L2.42157 13.7344L2.55189 13.6547C4.70157 12.3797 6.58595 11.9672 8.04845 11.775C7.90782 11.1984 7.82814 10.5797 7.82814 9.93751C7.82814 9.79688 7.83282 9.65626 7.83751 9.52032L3.99095 7.61251L5.65314 6.91407L3.52782 4.79532L7.73439 7.18595L6.36564 7.75782L7.86564 9.1922C7.98282 7.9547 8.39064 6.84376 9.0047 5.98126C9.74064 4.94532 10.8047 4.26563 12 4.26563C13.1953 4.26563 14.2594 4.94532 14.9953 5.98126C15.6141 6.84845 16.0219 7.96876 16.1391 9.21095L18.0188 7.27501L16.2328 6.76407L20.175 3.47673L18.1641 6.31407L20.2828 6.98438L16.1484 9.31407C16.1672 9.60938 16.1766 9.8672 16.1672 10.1344C16.4578 10.0922 16.7531 10.0641 17.0438 10.0594C17.3156 10.0594 17.5828 10.0781 17.8266 10.1203C18.5203 10.3172 19.7391 12.2672 19.9406 12.825C19.8047 13.4953 19.3313 14.0156 18.8906 14.4563L20.9953 18.9516C21.2719 19.5422 21.1266 20.2828 21.0188 20.8406C20.9063 21.4031 20.5828 21.9422 20.0016 22.1297C18.8906 22.3641 18.1031 21.7688 17.4563 21.0516C17.4656 21.7641 17.4563 22.4625 17.4375 23.1563H21.8625C23.1469 21.6516 23.1844 19.8656 23.0297 17.9484C21.8719 19.1438 20.9156 17.2781 20.3391 15.9984C21.7125 17.25 23.625 13.9875 23.1188 10.9969C22.8656 11.7375 21.1219 12.2625 20.3531 9.69845C22.7156 9.08907 22.9031 6.02345 23.1891 4.54407C22.1953 5.80313 21.6281 6.51563 20.1141 5.68126C21.9328 4.35235 20.4469 2.2472 18.8625 1.41563C19.9406 2.99673 16.1766 5.62501 15.0609 4.53235C14.3719 2.13282 11.1234 0.750009 8.67189 1.09782ZM12 5.10938C11.1234 5.10938 10.3125 5.60157 9.69376 6.46876C9.43595 6.82501 9.22032 7.24688 9.05157 7.71095C10.1063 8.30626 11.1797 8.88751 11.7328 9.94688C11.6672 10.1953 11.6203 10.4531 11.55 10.6969L9.46876 10.2C9.80157 9.60938 10.7719 9.65626 11.3297 10.35C10.9734 9.82032 10.4344 9.41251 9.50626 9.36563L9.01876 7.80001C8.79845 8.4422 8.67189 9.16876 8.67189 9.93751C8.67189 11.3063 9.07032 12.5391 9.69376 13.4063C10.3125 14.2734 11.1234 14.7656 12 14.7656C12.8766 14.7656 13.6875 14.2734 14.3063 13.4063C14.3719 13.3172 14.4281 13.2234 14.4891 13.1297C14.3859 12.3281 14.3063 11.2828 14.6344 10.6828C14.775 10.4625 15.0984 10.3969 15.3141 10.3266C15.3516 9.44532 15.2109 8.45626 14.9438 7.70626L14.475 9.34688C13.6734 9.40782 13.1719 9.73126 12.825 10.1625C13.2047 9.95157 14.025 9.86251 14.5313 9.75001C14.5828 10.0172 14.6625 10.2844 14.4 10.5891C13.7766 10.3828 13.0125 10.5234 12.4828 10.7203C12.4266 10.4672 12.3281 10.2 12.2625 9.98438C12.7969 8.89688 13.8797 8.28751 14.9297 7.65938C14.7656 7.21407 14.5547 6.81563 14.3063 6.46876C13.6875 5.60157 12.8766 5.10938 12 5.10938ZM15.3234 11.2313C15.2203 11.5406 15.1828 12.1547 15.2859 12.7828C15.3844 13.425 15.5953 14.0625 15.7641 14.3859C16.0875 14.5031 16.4109 14.625 16.7344 14.7469L17.9063 20.2781C18.3563 20.7844 19.0453 21.5391 19.7438 21.3281C20.4094 20.9859 20.2547 19.7813 20.175 19.1906L17.8969 14.3203C18.2578 13.7672 18.8766 13.3313 19.05 12.8578C18.8063 12.2391 18.2203 11.3906 17.5969 10.9406C16.8797 10.9172 15.9188 11.0297 15.3234 11.2313ZM10.1578 11.4281C10.5234 11.4281 11.1938 12.1313 12.0234 12.0797C12.7688 12.0375 13.4016 11.0813 13.875 11.6484C14.3906 12.2719 13.6875 13.2375 13.3406 13.5234C13.3406 13.5234 12.6703 12.8344 12.0375 12.8859C11.4141 12.9328 10.8609 13.6547 10.8609 13.6547C10.1203 13.2094 9.53439 12.3141 9.95157 11.5594C10.0031 11.4656 10.0734 11.4281 10.1578 11.4281ZM8.31095 12.5953C6.90939 12.7688 5.16564 13.1203 3.12189 14.3063C2.64985 16.1344 2.62126 18.0141 2.44548 19.6875L1.3261 21.6188C1.45735 22.2938 1.67579 23.1844 2.42626 23.1234C3.2686 23.0063 4.10392 22.4953 4.40017 21.7641C4.28626 21.2578 4.11235 20.8594 3.92345 20.4516C4.12407 18.8953 4.12267 17.3578 4.54829 16.1625L4.68376 15.7969C6.05157 16.1063 6.92345 15.9188 7.97345 15.1688L7.9172 16.0594C7.75782 18.4688 7.3547 21.0141 7.44376 23.1563H16.5891C16.6594 20.8219 16.6031 18.4547 16.0969 15.9281C16.0641 15.7547 16.0359 15.5719 16.0031 15.375L15.1781 15.0656C15 14.7844 14.8547 14.4609 14.7609 14.1984C14.0391 15.0563 13.0734 15.6094 12 15.6094C10.8047 15.6094 9.74064 14.9297 9.0047 13.8938C8.72814 13.5094 8.49376 13.0688 8.31095 12.5953ZM7.01251 16.7297C6.40314 16.9172 5.75626 16.8984 5.22657 16.8047C4.88439 17.9344 4.8797 19.0734 4.78126 20.3016C5.01564 20.8875 5.20314 21.3234 5.26876 21.8578C5.07657 22.3547 4.80001 22.8422 4.49673 23.1563H6.59064C6.50626 21.1172 6.8297 18.8625 7.01251 16.7297Z" fill="black"/>
</svg>
