<svg width="24" height="24" viewBox="0 0 24 24" fill="none" xmlns="http://www.w3.org/2000/svg">
<path d="M20.2338 1.84012C19.8616 1.84012 19.5004 1.89065 19.1499 1.99181C18.8031 2.09296 18.4599 2.24657 18.1202 2.45249V3.47132C18.4707 3.22926 18.8067 3.04495 19.1282 2.91852C19.4534 2.79206 19.7587 2.72892 20.0442 2.72892C20.4344 2.72892 20.7468 2.8282 20.9817 3.0269C21.2202 3.22565 21.3393 3.48581 21.3393 3.80737C21.3393 3.98432 21.2924 4.15781 21.1984 4.32759C21.1081 4.49742 20.96 4.67803 20.754 4.86946L20.2664 5.3519C19.9412 5.66259 19.728 5.93535 19.6268 6.1702C19.5257 6.40504 19.4752 6.70495 19.4752 7.06982V7.90443H20.5102V7.23787C20.5102 7.0499 20.5155 6.90177 20.5264 6.79349C20.5373 6.68502 20.5536 6.59301 20.5751 6.51712C20.6041 6.42684 20.6528 6.33477 20.7215 6.24079C20.7937 6.14329 20.9147 6.00951 21.0846 5.83968L21.5615 5.3736C21.8865 5.06282 22.1142 4.78476 22.2443 4.53909C22.3744 4.28981 22.4394 4.02777 22.4394 3.75318C22.4394 3.17873 22.237 2.71631 21.8324 2.36592C21.4313 2.01548 20.8984 1.84026 20.2336 1.84026L20.2338 1.84012ZM8.33878 2.13848C4.56061 2.13843 1.40625 5.99545 1.40625 10.8642C1.40625 13.0955 2.06916 15.1139 3.15061 16.6464C3.38545 16.5096 3.66014 16.4354 3.94842 16.4587C4.37948 16.4933 4.80483 16.7335 5.17866 17.1539C6.04444 18.1275 6.83344 18.7458 7.96678 19.4563C10.9099 17.7847 12.3319 15.8603 14.4947 13.9548C14.6285 13.8368 14.7666 13.7411 14.9062 13.6652C15.1424 12.7884 15.271 11.8469 15.271 10.8642C15.271 5.99549 12.1167 2.13857 8.33864 2.13857L8.33878 2.13848ZM4.54734 6.8467C5.25877 6.85092 5.96555 7.22592 6.59142 7.96063L5.94923 8.50785C5.39109 7.85268 4.92502 7.66331 4.45852 7.69293C3.99202 7.7226 3.45431 8.01543 2.87883 8.54474L2.30756 7.92374C2.95772 7.32562 3.6457 6.89906 4.40489 6.85077C4.45228 6.84775 4.49976 6.84638 4.54725 6.84665L4.54734 6.8467ZM11.6705 6.8467C11.7179 6.84643 11.7654 6.8478 11.8128 6.85082C12.572 6.8991 13.26 7.32567 13.9102 7.92379L13.3389 8.54474C12.7634 8.01538 12.2257 7.72256 11.7592 7.69293C11.2927 7.66331 10.8266 7.85268 10.2685 8.50785L9.62634 7.96063C10.2522 7.22592 10.959 6.85096 11.6704 6.84674L11.6705 6.8467ZM19.4425 8.70107V10.0776H20.5426V8.70112L19.4425 8.70107ZM4.66158 9.07017C5.25436 9.07017 5.79877 9.24604 6.21394 9.55579C6.62911 9.86563 6.92203 10.3325 6.92203 10.8642C6.92203 11.3958 6.62906 11.8627 6.21394 12.1725C5.79881 12.4824 5.25441 12.6582 4.66158 12.6582C4.0688 12.6582 3.52439 12.4824 3.10922 12.1725C2.69409 11.8627 2.40117 11.3958 2.40117 10.8642C2.40117 10.3325 2.69414 9.86573 3.10922 9.55588C3.52439 9.24604 4.06875 9.07017 4.66158 9.07017ZM12.0158 9.07017C12.6086 9.07017 13.1531 9.24604 13.5682 9.55579C13.9834 9.86563 14.2763 10.3325 14.2763 10.8642C14.2763 11.3958 13.9834 11.8627 13.5682 12.1725C13.1531 12.4824 12.6087 12.6582 12.0159 12.6582C11.4231 12.6582 10.8787 12.4824 10.4635 12.1725C10.0484 11.8627 9.75548 11.3958 9.75548 10.8642C9.75548 10.3325 10.0485 9.86573 10.4636 9.55588C10.8788 9.24604 11.4232 9.07017 12.016 9.07017H12.0158ZM4.5128 9.91954C4.15153 9.94612 3.83433 10.0674 3.61387 10.232C3.36356 10.4188 3.24497 10.638 3.24497 10.8642C3.24497 11.0903 3.36356 11.3095 3.61387 11.4964C3.86419 11.6832 4.23895 11.8144 4.66153 11.8144C5.0842 11.8144 5.45902 11.6832 5.70933 11.4963C5.95955 11.3095 6.07823 11.0903 6.07823 10.8642C6.07823 10.8599 6.07795 10.8559 6.07786 10.8517C5.99203 10.9623 5.88189 11.0518 5.7559 11.1134C5.62991 11.175 5.4914 11.2071 5.35102 11.2072C5.2303 11.2072 5.11076 11.1835 4.99923 11.1376C4.88771 11.0916 4.78637 11.0242 4.70101 10.9393C4.61566 10.8543 4.54795 10.7535 4.50175 10.6425C4.45556 10.5315 4.43179 10.4125 4.4318 10.2924C4.43215 10.1638 4.45973 10.0367 4.51275 9.91949L4.5128 9.91954ZM11.8575 9.92015C11.5002 9.94809 11.1868 10.0688 10.9681 10.2319C10.7178 10.4187 10.5992 10.6379 10.5992 10.8641C10.5992 11.0902 10.7178 11.3094 10.9681 11.4963C11.2185 11.6831 11.5933 11.8143 12.0159 11.8143C12.4385 11.8143 12.8133 11.6831 13.0635 11.4962C13.3139 11.3094 13.4326 11.0902 13.4326 10.8641C13.4326 10.8533 13.4321 10.8425 13.4317 10.8318C13.3458 10.9421 13.2357 11.0315 13.1099 11.0929C12.984 11.1544 12.8456 11.1864 12.7054 11.1865C12.5847 11.1865 12.4652 11.1628 12.3537 11.1168C12.2421 11.0709 12.1408 11.0035 12.0554 10.9185C11.9701 10.8336 11.9024 10.7328 11.8562 10.6218C11.81 10.5108 11.7862 10.3918 11.7862 10.2717C11.7865 10.151 11.8107 10.0315 11.8576 9.92015H11.8575ZM15.7605 14.2484C15.7399 14.2474 15.7192 14.2476 15.6986 14.249C15.5287 14.2603 15.319 14.3529 15.0526 14.5877C13.105 16.3036 11.6702 18.1739 8.98059 19.8387L7.10981 21.0802L6.64327 20.3772L7.22705 19.9898C6.19111 19.3173 5.39062 18.6616 4.54837 17.7144C4.27664 17.4089 4.04784 17.313 3.88088 17.2995C3.714 17.2861 3.57328 17.3438 3.43425 17.4846C3.15863 17.7635 2.98903 18.3873 3.23738 18.9982C3.82153 20.073 4.93177 21.0677 5.77041 22.3359L5.86195 22.4742L5.83467 22.6378C5.80563 22.8103 5.77844 22.9831 5.75311 23.1562H15.6649C15.6698 23.0991 15.6734 23.0411 15.674 22.9806C15.6688 22.7842 15.523 22.5087 15.2869 22.298C15.0494 22.0862 14.7366 21.964 14.5649 21.9683L13.982 21.9832L14.1501 21.4249C14.2412 21.1224 14.1503 20.739 13.9339 20.5424C13.7173 20.3458 13.362 20.2286 12.6536 20.5888L12.15 19.9292C13.4665 18.4777 15.214 16.7267 16.2587 15.1201C16.4012 14.9009 16.3231 14.5783 16.107 14.3977C16.0125 14.3188 15.9008 14.2554 15.7606 14.2484H15.7605ZM10.0086 15.9659L10.346 16.7393C9.03075 17.313 7.65159 17.3457 6.32409 16.7359L6.67627 15.9693C7.80014 16.4855 8.87236 16.4616 10.0086 15.966V15.9659Z" fill="black"/>
</svg>
