<svg width="24" height="24" viewBox="0 0 24 24" fill="none" xmlns="http://www.w3.org/2000/svg">
<path d="M15.6459 0.946305C13.7723 0.946305 11.8978 1.65937 10.4707 3.08643C7.72069 5.83645 7.62089 10.2452 10.1704 13.1163L9.43064 13.8545L10.0517 14.4756L10.79 13.7359C13.661 16.2854 18.0697 16.1856 20.8198 13.4355C23.6738 10.5815 23.6739 5.94051 20.8198 3.08648C19.3928 1.65937 17.5197 0.946305 15.6459 0.946305ZM15.6459 1.8164C17.2936 1.8164 18.9405 2.4464 20.2002 3.70607C22.7195 6.22537 22.7195 10.2967 20.2002 12.8159C17.7849 15.2312 13.9443 15.3304 11.4112 13.1147L11.4214 13.1046C11.3112 13.0085 11.2026 12.9091 11.0977 12.8042C10.9942 12.7008 10.8967 12.5935 10.8017 12.4849L10.7915 12.4952C8.57573 9.9621 8.67502 6.12135 11.0903 3.70607C12.35 2.4464 13.9983 1.8164 15.6459 1.8164ZM15.6459 2.69826C14.2252 2.69826 12.8039 3.24201 11.7173 4.32857C9.54413 6.50179 9.54413 10.0114 11.7173 12.1845C12.1927 12.6599 12.7313 13.0319 13.3066 13.2993C12.139 12.4046 11.3862 10.9962 11.3862 9.41151C11.3862 8.69324 11.5405 8.01051 11.8184 7.39588C11.6231 8.35612 11.839 9.31213 12.4966 9.96965C13.649 11.1221 15.719 10.9221 17.1196 9.52143C18.5203 8.12081 18.7202 6.05081 17.5678 4.89838C17.4564 4.78701 17.3361 4.68871 17.2089 4.60246C19.3244 5.00784 20.9568 6.77488 21.1582 8.95602C21.3663 7.31212 20.8385 5.59387 19.5732 4.32852C18.4866 3.24196 17.0668 2.69821 15.646 2.69821L15.6459 2.69826ZM8.29252 13.9541L1.97316 20.2734L3.59325 21.8936L9.91266 15.5742L8.29247 13.9541L8.29252 13.9541ZM1.875 21.4131L1.125 22.1616L1.74469 22.7812L2.49319 22.0312L1.875 21.4131Z" fill="black"/>
</svg>
