<svg width="24" height="24" viewBox="0 0 24 24" fill="none" xmlns="http://www.w3.org/2000/svg">
<path d="M12 3.42188C9.05273 3.42188 7.69158 3.98194 7.06533 4.68652C6.52008 5.29992 6.44077 6.13252 6.4283 7.07812H7.85503C7.93163 6.42361 8.19764 5.83875 8.76619 5.46009C9.45483 5.00156 10.465 4.82812 12 4.82812C13.5353 4.82812 14.5458 5.00339 15.2342 5.46281C15.8021 5.84175 16.068 6.42591 16.1448 7.07812H17.5717C17.5592 6.13252 17.4799 5.29992 16.9347 4.68652C16.3084 3.98194 14.9473 3.42188 12 3.42188ZM5.67188 7.82812V8.57812H8.57812V7.82812H5.67188ZM15.4219 7.82812V8.57812H18.3281V7.82812H15.4219ZM3.81891 9.42188C3.16894 9.42188 2.49553 9.74236 1.99219 10.2381C1.48884 10.7338 1.17188 11.3906 1.17188 12V21C1.17188 21.6797 1.33523 22.1135 1.61109 22.389C1.88686 22.6645 2.32172 22.8281 3.00295 22.8281H21.0211C21.6892 22.8281 22.1171 22.6658 22.3907 22.3902C22.6644 22.1147 22.8281 21.6797 22.8281 21V12C22.8281 11.3906 22.5105 10.732 22.0142 10.2358C21.518 9.73955 20.8594 9.42188 20.25 9.42188H3.81891ZM10.5 12H13.5V15H16.5V18H13.5V21H10.5V18H7.5V15H10.5V12Z" fill="black"/>
</svg>
