<svg width="24" height="24" viewBox="0 0 24 24" fill="none" xmlns="http://www.w3.org/2000/svg">
<g clip-path="url(#clip0_52_245)">
<path d="M7.965 0.733795C7.47225 1.51647 6.91537 2.33026 6.01087 3.09972C6.03243 3.12067 6.05465 3.14144 6.07673 3.16234L7.18064 3.14331L7.01531 3.64487C6.99164 3.71659 6.96539 3.78775 6.93665 3.85825C7.06804 3.94942 7.20595 4.03989 7.35253 4.12956L8.52684 4.84816L6.37106 4.81098C6.27947 4.92695 6.18075 5.04067 6.07551 5.152C6.48801 5.69186 7.10887 6.21667 7.8884 6.68791L7.30697 6.6708L7.30626 6.93695C7.70611 7.23498 8.14026 7.52045 8.57948 7.8032C9.42839 7.26095 10.0696 6.65476 10.4315 6.03995L7.74309 6.08636L8.9174 5.36776C9.33787 5.11051 9.69201 4.84675 9.99937 4.57712C9.7604 4.32048 9.5775 4.06328 9.4717 3.79478L9.28232 3.3145L10.6765 3.22905C9.61593 2.55048 8.55187 1.7958 7.965 0.733795ZM18.9621 1.35362C18.6557 1.96122 18.3115 2.71375 17.8541 3.44565C18.3663 4.30661 18.9991 5.13301 20.0466 5.90106L21.0037 6.60278L18.5423 6.55192C18.8684 7.1208 19.4768 7.81089 20.1633 8.42912C21.0613 9.2379 22.0818 9.95594 22.6902 10.3001L23.2217 10.6009C23.222 10.4058 23.222 10.2549 23.2224 9.946C22.4173 9.3864 21.8271 8.73686 21.5198 7.96787L21.327 7.48515L23.3709 7.36422C22.9064 7.15994 22.4453 6.97689 22.0245 6.7989C21.6262 6.63044 21.2638 6.46576 20.9594 6.2725C20.6549 6.07928 20.3921 5.85278 20.2629 5.52517L20.0787 5.0582L21.7698 4.90923C20.6333 3.96114 19.5562 2.6238 18.9621 1.35362ZM3.93876 1.62283C3.35189 2.68483 2.28782 3.43956 1.22737 4.11817L2.62134 4.20358L2.43211 4.68376C2.20804 5.25212 1.6439 5.81453 0.876699 6.41219C0.862871 6.93765 0.858325 7.24 0.858653 7.24337C0.858887 7.24544 0.867559 7.29494 0.872246 7.38995C0.874028 7.42473 0.874121 7.53887 0.87534 7.59423L1.52353 7.63159L1.52334 7.65737L1.34025 8.11572C1.28493 8.25423 1.22315 8.40025 1.14525 8.54847L1.68548 8.218C3.43748 7.14597 4.04892 5.96036 4.84462 4.7102L4.8337 5.00861L5.04342 4.92072C4.98356 4.79406 4.93176 4.66515 4.8885 4.534L4.72312 4.03244L5.96915 4.054C5.01881 3.26533 4.44543 2.42753 3.93876 1.62273V1.62283ZM12.3309 2.86108C11.8243 3.66583 11.2509 4.50358 10.3006 5.29201L11.5466 5.27055L11.3813 5.77211C11.0692 6.71842 10.3139 7.5482 9.27783 8.25226L10.1176 8.79475L10.9742 8.827L10.7807 9.31919C10.6727 9.59401 10.5297 9.85356 10.3584 10.0997L10.7679 9.8095C11.6076 9.21465 12.4917 8.52067 13.1961 7.86259C13.666 7.42361 14.0388 6.99447 14.2781 6.64787L11.9092 6.47373L12.6826 5.875C13.1687 5.49873 13.6657 5.12781 14.1322 4.74165C13.4061 4.2145 12.7479 3.61553 12.3311 2.86103L12.3309 2.86108ZM16.6936 2.89295C16.0955 4.14944 14.9955 5.05108 13.923 5.8698L15.3944 5.97789L15.2446 6.4338C15.0336 7.07598 14.4486 7.71873 13.7079 8.41061C13.202 8.88325 12.6183 9.3617 12.0253 9.81339L14.3352 9.97717L14.1824 10.4356C13.654 12.0203 11.9865 13.1039 10.6285 13.9792C11.2607 14.3568 11.9256 14.703 12.4948 15.0254C15.6982 15.9076 19.4132 15.3522 21.9131 14.2754C21.2948 13.9213 20.7954 13.5935 20.378 13.197C19.8247 12.6712 19.4371 12.027 19.1416 11.1259L19.0002 10.6943L21.4363 10.3844C20.8797 9.99958 20.2564 9.52239 19.6612 8.98637C18.7186 8.13733 17.8615 7.20498 17.6027 6.26448L17.4694 5.7797L18.7756 5.80675C17.7831 4.86597 17.2034 3.86214 16.6936 2.893L16.6936 2.89295ZM5.09906 5.71126C4.59248 6.51601 4.01915 7.35376 3.06876 8.1422L4.31479 8.12083L4.14932 8.62225C3.76307 9.79403 2.69742 10.7872 1.26065 11.584L3.74222 11.6773L3.54881 12.1693C3.03084 13.487 2.15381 14.6525 0.687653 15.5249C4.15101 16.5827 8.02706 17.0046 11.5431 15.3574C10.938 15.0267 10.2821 14.6706 9.65259 14.2531C8.80556 13.6914 8.03423 13.0467 7.69743 12.204L7.5045 11.7212L9.77325 11.587C9.21881 11.2295 8.67567 10.8613 8.20026 10.4909C7.43878 9.89729 6.83808 9.36184 6.60558 8.77225L6.4162 8.29192L7.81026 8.20647C6.74995 7.5279 5.68598 6.77322 5.09901 5.71131L5.09906 5.71126ZM3.19968 8.89014L0.902059 8.9297C0.894184 8.93992 0.887059 8.95033 0.878996 8.96045C0.866059 9.96803 0.857996 10.5253 0.855465 10.947C1.94962 10.335 2.77092 9.61867 3.19968 8.89014ZM8.15315 9.47153C8.30643 9.61065 8.47579 9.75442 8.66151 9.89922C8.82651 10.0278 9.00211 10.1582 9.1837 10.2887C9.4387 10.046 9.65639 9.79436 9.82551 9.53434L8.15311 9.47153H8.15315ZM10.1059 10.4291C10.0182 10.5334 9.9247 10.6348 9.82711 10.734C10.262 11.0242 10.7155 11.3078 11.1574 11.569L11.9845 12.0578C12.5161 11.6162 12.9752 11.1474 13.2602 10.6529L10.1059 10.4291ZM23.2216 10.9135L20.0162 11.3212C20.2349 11.8579 20.4871 12.247 20.8262 12.5865L20.8163 12.1365C21.6345 12.0898 22.4431 11.9793 23.2257 11.7913C23.2227 11.455 23.2218 11.2092 23.2216 10.9135ZM11.786 12.2191L8.67379 12.4032C8.85675 12.6463 9.09965 12.8872 9.38147 13.121C9.68226 13.1812 9.98639 13.2365 10.2934 13.2853C10.7921 12.9515 11.3115 12.5956 11.786 12.2191ZM1.48551 12.3428L1.47192 14.0124C1.97564 13.5263 2.34811 12.9826 2.63582 12.3861L1.48551 12.3428ZM20.8893 15.4616C20.2207 15.6761 19.5057 15.8552 18.7621 15.9876L19.0222 22.1836H21.0368L20.8893 15.4616ZM12.366 15.7898C12.2412 15.8556 12.1158 15.9187 11.9902 15.9795L11.9467 21.3361H14.4162L14.3024 16.1566C13.6487 16.0838 12.9999 15.9633 12.3659 15.7898H12.366ZM18.0163 16.1035C17.3092 16.1969 16.5828 16.2465 15.8516 16.2439L15.8335 22.7943H18.2973L18.0163 16.1035V16.1035ZM1.45162 16.5323L1.40831 21.8779H3.48328L3.57586 16.9842C2.85576 16.8687 2.1457 16.7147 1.45157 16.5322L1.45162 16.5323ZM9.64162 16.8262C9.099 16.9607 8.5529 17.0575 8.00578 17.1207L8.18929 20.2236H9.73922L9.64153 16.8261L9.64162 16.8262ZM4.32398 17.09L4.20642 23.3037L7.61386 23.1965L7.25836 17.1867C6.27539 17.2472 5.29261 17.2066 4.32398 17.09V17.09Z" fill="black"/>
</g>
<defs>
<clipPath id="clip0_52_245">
<rect width="24" height="24" fill="white"/>
</clipPath>
</defs>
</svg>
