<svg width="24" height="24" viewBox="0 0 24 24" fill="none" xmlns="http://www.w3.org/2000/svg">
<path d="M3.73243 1.03265C2.9499 1.0455 2.27883 1.2825 1.80024 1.76662C0.269208 3.3157 1.29047 6.81154 4.08844 9.57717C5.96307 11.4301 8.38069 11.6877 9.94922 12.23C8.15907 13.8806 6.15825 15.3984 3.83494 16.8837L6.72216 19.7373C8.28155 17.2344 9.9121 15.0773 11.7099 13.147C14.8255 15.2353 17.0092 19.0755 19.0972 22.8486L23.105 18.7939C19.2516 16.7196 15.3903 14.6239 13.2964 11.5429C15.2283 9.70476 17.3614 8.06761 19.7959 6.51117L16.9088 3.65765C15.4805 5.94998 14.006 7.95539 12.3691 9.77784C11.8205 8.21043 11.5131 5.81807 9.63727 3.96384C7.71357 2.0625 5.45391 1.00453 3.73238 1.03275L3.73243 1.03265ZM4.5279 3.23878C5.50946 3.25823 6.91336 3.98925 8.15771 5.21925C9.88899 6.93042 10.6564 8.95903 9.8731 9.75145C9.08982 10.544 7.05151 9.80006 5.32036 8.08889C3.58922 6.37781 2.82024 4.34765 3.60352 3.55518C3.82383 3.33229 4.14376 3.23114 4.5279 3.23878Z" fill="black"/>
</svg>
