<svg width="24" height="24" viewBox="0 0 24 24" fill="none" xmlns="http://www.w3.org/2000/svg">
<path d="M14.6814 1.21594L14.6752 2.37235L13.8258 3.15718L14.9822 3.16336L15.767 4.01274L15.7732 2.85633L16.6226 2.0715L15.4662 2.06532L14.6814 1.21594ZM18.9742 3.56532L18.0689 4.28485L16.9252 4.11432L17.6447 5.01961L17.4742 6.16336L18.3795 5.44383L19.5232 5.61432L18.8037 4.70907L18.9742 3.56532ZM1.8689 3.75966L1.53534 4.52222L1.89332 4.67879L13.8933 9.92879L14.2799 10.0979L14.2752 10.1085L14.3038 10.121L14.642 9.34791L14.2556 9.17883L12.1878 8.27424C12.9269 8.087 13.77 7.98778 14.6294 7.9869C15.261 7.9869 15.8865 8.04005 16.4701 8.14331C17.0536 8.24657 17.5838 8.39791 18.0305 8.58871C18.4771 8.77951 18.8314 9.00601 19.073 9.25529C19.3147 9.50458 19.4391 9.77175 19.4391 10.0416C19.4391 10.3114 19.3147 10.5785 19.0729 10.8278C18.8312 11.0771 18.4769 11.3036 18.0303 11.4943C17.5837 11.6851 17.0535 11.8365 16.4699 11.9397C15.8864 12.043 15.2609 12.0961 14.6293 12.0961C13.9977 12.0961 13.3722 12.043 12.7887 11.9397C12.2052 11.8365 11.6749 11.6851 11.2283 11.4943C10.7817 11.3036 10.4274 11.0771 10.1857 10.8278C9.94397 10.5785 9.81956 10.3114 9.81956 10.0416C9.82058 9.76501 9.95231 9.49139 10.2068 9.2371L8.66868 8.56407C8.08031 8.82141 7.61334 9.11297 7.30031 9.40594C6.9419 9.74157 6.79396 10.052 6.79396 10.3497C6.79396 10.6475 6.9419 10.9579 7.30031 11.2935C7.65872 11.629 8.21887 11.9626 8.93203 12.245C10.3584 12.8097 12.3872 13.1748 14.6293 13.1748C16.8714 13.1748 18.9001 12.8097 20.3265 12.245C21.0397 11.9626 21.5999 11.629 21.9582 11.2934C22.3167 10.9579 22.4647 10.6475 22.4647 10.3497C22.4647 10.052 22.3167 9.74152 21.9583 9.40599C21.5999 9.07036 21.0397 8.73685 20.3265 8.45443C18.9001 7.88968 16.8714 7.52461 14.6294 7.52461C13.3908 7.52461 12.2181 7.63646 11.1755 7.83132L2.25548 3.92874L1.8689 3.75966ZM11.4737 3.96169L11.4773 4.74488L10.9073 5.28207L11.6905 5.2785L12.2277 5.8485L12.2242 5.06532L12.7941 4.52813L12.011 4.53165L11.4738 3.96165L11.4737 3.96169ZM10.1222 13.434C10.1153 14.138 10.1016 14.8281 10.0735 15.5109C13.2397 16.9034 16.0078 16.9053 19.1852 15.5162C19.1571 14.8317 19.1433 14.1398 19.1363 13.4341C17.8552 13.8055 16.3053 14.0184 14.6293 14.0184C12.9532 14.0184 11.4034 13.8056 10.1223 13.4341L10.1222 13.434ZM10.0282 16.409C10.0022 16.8298 9.96947 17.2493 9.9284 17.6689L9.95442 17.6806C13.2101 19.1419 16.0367 19.142 19.3053 17.6803L19.3304 17.6692C19.2894 17.251 19.2567 16.833 19.2307 16.4136C16.0913 17.7095 13.1581 17.7081 10.0283 16.4091L10.0282 16.409ZM19.4291 18.5463C16.1477 19.9554 13.0998 19.9557 9.82945 18.5464C9.72225 19.3861 9.57703 20.2315 9.37931 21.0965C9.37931 23.3465 19.8793 23.3465 19.8793 21.0965C19.6816 20.2314 19.5364 19.3861 19.4291 18.5463Z" fill="black"/>
</svg>
