<svg width="24" height="24" viewBox="0 0 24 24" fill="none" xmlns="http://www.w3.org/2000/svg">
<path d="M7.45782 1.20093L7.29375 1.78827L13.6172 3.4889L13.8234 2.87062L7.45782 1.20093ZM14.8313 2.55937L14.4281 3.76546C15.1125 4.39499 15.8156 4.4489 16.6359 4.37812L16.9172 3.0103C16.3266 2.6864 15.6141 2.57671 14.8313 2.55937ZM20.8313 3.83765L19.4438 4.21687L19.2234 5.02499L20.3391 6.10312L22.7813 5.55468L20.8313 3.83765ZM17.6203 3.86483L17.4844 4.52671L18.4031 4.77655L18.5813 4.11702L17.6203 3.86483ZM9.43594 4.21452C9.09375 4.22296 8.76094 4.38374 8.46563 4.68093C8.1375 5.0203 7.88438 5.53593 7.81406 6.13593C7.74375 6.73593 7.87969 7.29374 8.12813 7.69687C8.38125 8.09062 8.72344 8.32968 9.11719 8.37187C9.51094 8.40937 9.9 8.24999 10.2328 7.9078C10.5609 7.5703 10.8188 7.05468 10.8891 6.44999C10.9547 5.85468 10.8188 5.29686 10.5703 4.89843C10.3172 4.49765 9.975 4.26046 9.58594 4.22015C9.53906 4.21499 9.4875 4.21312 9.43594 4.21452ZM14.7469 4.9828C14.5313 6.5578 14.1938 7.79999 13.7156 9.12187L12.4266 8.95312C12.4078 9.65624 12.3141 10.3594 12.075 11.0719C13.0406 11.0484 13.9594 10.9406 14.8547 10.5422C15.3844 8.7703 15.7172 7.01249 15.9938 5.24999C15.5766 5.23124 15.1594 5.16093 14.7469 4.9828ZM6.58594 8.58749C6.17813 8.58749 5.85938 8.6203 5.33907 8.77968C4.09125 9.53905 3.19594 10.6641 2.85469 11.4937C2.46094 12.4734 2.30766 13.6969 2.32688 14.7984L3.52875 14.9484C3.6886 13.8234 3.75938 12.9937 4.03641 12.0984L6.25313 10.5047L6.11719 12.6562L6.46875 12.5484C7.3125 12.1219 7.89844 11.5781 8.40469 10.95C8.84531 10.4062 9.21563 9.80155 9.60938 9.19218C9.41719 9.22968 9.225 9.23905 9.02344 9.2203C8.53125 9.17343 8.10469 8.94374 7.7625 8.60624C7.25156 8.60624 6.88594 8.58749 6.58594 8.58749ZM11.5594 8.81249L10.9172 8.82187C10.3125 9.61874 9.825 10.5328 9.14063 11.4C9.44063 11.5078 9.675 11.7937 9.67969 12.0516C9.6375 12.5344 9.18282 12.7547 8.78906 12.7594C8.50313 12.7406 8.27344 12.6656 8.08594 12.4969C7.51875 12.9656 6.82969 13.3781 5.95781 13.6781C5.96719 13.7906 5.98125 13.9078 5.98594 14.0203C6.13125 13.9734 6.28125 13.95 6.44531 13.95C6.98438 13.9641 7.52813 14.2969 7.5375 14.7984C7.47656 15.3797 6.91406 15.6422 6.44531 15.6469C6.27188 15.6469 6.10781 15.6187 5.9625 15.5625C5.92031 15.9141 5.84531 16.2703 5.72344 16.6266L6.98907 16.7437L7.26094 18.1219L8.42813 17.0437L9.01406 18.5578C9.26719 18.0797 9.52969 17.6016 9.82031 17.1328C9.29063 17.1234 8.71407 16.8281 8.7 16.35C8.76094 15.7641 9.37032 15.5672 9.825 15.5625C10.1672 15.5812 10.4719 15.6469 10.7156 15.8531C11.0813 15.3937 11.4938 14.9578 11.9531 14.55C11.8922 14.3906 11.8125 14.2219 11.7141 14.0531C11.5734 14.0906 11.4141 14.1094 11.25 14.1094C10.7719 14.0578 10.1859 13.9453 10.1766 13.4297C10.1953 13.1344 10.4063 12.9516 10.6406 12.8531C10.7016 12.8297 10.7672 12.8109 10.8328 12.7969C10.7063 12.6328 10.5938 12.4922 10.4672 12.3234L10.6406 12.0656C11.3672 10.9781 11.55 9.94218 11.5594 8.81249ZM11.7563 15.9375C11.3813 16.3547 11.0531 16.7953 10.7438 17.2641C10.9547 17.4422 11.1844 17.6297 11.4094 17.8219C11.85 18.1969 12.3094 18.6187 12.4266 19.2422L13.1016 22.8L14.4047 22.3125C14.2359 20.9625 14.1563 20.0203 13.8094 18.5016V18.4875L13.8047 18.4734C13.7297 18.0047 13.3219 17.5172 12.7828 16.9922C12.45 16.6641 12.075 16.3219 11.7563 15.9375ZM5.90625 17.5031L4.96875 19.8516C3.8086 20.1047 2.55797 19.8984 1.56375 19.6922L1.21735 20.8031C2.72813 21.0891 4.72969 21.2812 5.80313 21.0797L6.68438 19.6219L6.27188 17.5359L5.90625 17.5031Z" fill="black"/>
</svg>
